<?xml version="1.0" standalone="no"?>
<!DOCTYPE svg PUBLIC "-//W3C//DTD SVG 20010904//EN"
 "http://www.w3.org/TR/2001/REC-SVG-20010904/DTD/svg10.dtd">
<svg version="1.0" xmlns="http://www.w3.org/2000/svg"
 width="287.000000pt" height="287.000000pt" viewBox="0 0 287.000000 287.000000"
 preserveAspectRatio="xMidYMid meet">
<metadata>
Created by potrace 1.14, written by Peter Selinger 2001-2017
</metadata>
<g transform="translate(0.000000,287.000000) scale(0.100000,-0.100000)"
fill="#000000" stroke="none">
<path d="M1338 2527 c-338 -591 -518 -911 -518 -919 0 -4 -3 -8 -7 -8 -5 0
-19 -22 -32 -48 -12 -27 -30 -58 -40 -69 -9 -12 -90 -65 -181 -119 -91 -53
-226 -133 -300 -177 -74 -44 -146 -87 -160 -94 -14 -8 -42 -25 -63 -37 l-37
-23 50 -31 c28 -18 54 -32 56 -32 3 0 25 -13 49 -30 24 -16 46 -30 50 -30 3 0
34 -17 68 -39 34 -21 265 -159 512 -306 248 -147 461 -275 475 -284 14 -9 36
-22 50 -28 14 -7 47 -27 73 -43 l49 -30 36 21 c21 12 53 32 72 44 34 22 624
371 687 406 18 10 49 29 70 42 21 14 117 71 213 127 96 56 216 128 267 158
l92 56 -27 16 c-15 9 -47 28 -72 42 -25 14 -130 76 -235 138 -104 62 -236 139
-291 172 -56 32 -107 65 -114 73 -14 16 -140 235 -140 242 0 3 -8 17 -18 31
-11 15 -32 52 -49 82 -44 80 -342 601 -361 630 -9 14 -17 27 -17 30 0 3 -19
37 -41 75 -23 39 -47 80 -53 93 -6 12 -15 22 -19 22 -4 0 -46 -69 -94 -153z"/>
</g>
</svg>
