<svg width="1920" height="221" viewBox="0 0 1920 221" fill="none" xmlns="http://www.w3.org/2000/svg">
<path fill-rule="evenodd" clip-rule="evenodd" d="M1934 192.304L1853.42 165.595C1772.83 138.886 1611.67 85.4683 1450.5 96.1519C1289.33 106.835 1128.17 181.62 967 208.329C805.833 235.038 644.667 213.671 483.5 197.646C322.333 181.62 161.167 170.937 80.5834 165.595L-5.31065e-06 160.253L-1.93204e-05 1.22897e-06L80.5834 -5.81585e-06C161.167 -1.28607e-05 322.333 -2.69503e-05 483.5 -4.10399e-05C644.667 -5.51296e-05 805.833 -6.92192e-05 967 -8.33089e-05C1128.17 -9.73985e-05 1289.33 -0.000111488 1450.5 -0.000125578C1611.67 -0.000139667 1772.83 -0.000153757 1853.42 -0.000160802L1934 -0.000167847L1934 192.304Z" fill="#161A1E"/>
</svg>
