<svg width="46" height="34" viewBox="0 0 46 34" fill="none" xmlns="http://www.w3.org/2000/svg">
<path d="M38.3059 3.5365C35.3732 2.24191 32.2772 1.32349 29.0969 0.804688C28.6617 1.5548 28.268 2.32656 27.9173 3.11674C24.5297 2.62455 21.0848 2.62455 17.6972 3.11674C17.3464 2.32664 16.9526 1.55489 16.5176 0.804688C13.3353 1.32787 10.2373 2.24847 7.30163 3.54327C1.47363 11.8572 -0.106247 19.9646 0.683692 27.957C4.09671 30.3884 7.91686 32.2375 11.9781 33.424C12.8925 32.2381 13.7017 30.98 14.397 29.6631C13.0764 29.1875 11.8017 28.6007 10.5878 27.9096C10.9073 27.6862 11.2197 27.456 11.5217 27.2325C15.0539 28.8342 18.9092 29.6646 22.8125 29.6646C26.7159 29.6646 30.5711 28.8342 34.1034 27.2325C34.4088 27.4729 34.7213 27.7031 35.0373 27.9096C33.821 28.6018 32.544 29.1897 31.221 29.6665C31.9155 30.9828 32.7247 32.2398 33.64 33.424C37.7046 32.2423 41.5277 30.394 44.9414 27.9604C45.8682 18.6918 43.358 10.6589 38.3059 3.5365ZM15.3976 23.0417C13.1963 23.0417 11.3777 21.1156 11.3777 18.746C11.3777 16.3764 13.1331 14.4333 15.3906 14.4333C17.6481 14.4333 19.4527 16.3764 19.414 18.746C19.3754 21.1156 17.6411 23.0417 15.3976 23.0417ZM30.2274 23.0417C28.0226 23.0417 26.211 21.1156 26.211 18.746C26.211 16.3764 27.9664 14.4333 30.2274 14.4333C32.4884 14.4333 34.2789 16.3764 34.2403 18.746C34.2017 21.1156 32.4708 23.0417 30.2274 23.0417Z" fill="#BBBBBB"/>
</svg>
