<svg width="41" height="40" viewBox="0 0 41 40" fill="none" xmlns="http://www.w3.org/2000/svg">
<path d="M20.5663 0.811035C9.66373 0.811035 0.822876 9.65026 0.822876 20.5545C0.822876 29.2776 6.47997 36.6783 14.3246 39.2889C15.3113 39.4717 15.6736 38.8606 15.6736 38.3392C15.6736 37.8684 15.6553 36.3131 15.6468 34.6633C10.1541 35.8577 8.99514 32.3339 8.99514 32.3339C8.09703 30.0518 6.80299 29.445 6.80299 29.445C5.01167 28.2196 6.93801 28.2448 6.93801 28.2448C8.9206 28.3841 9.96452 30.2794 9.96452 30.2794C11.7254 33.2977 14.5832 32.4251 15.7099 31.9206C15.8871 30.6446 16.3988 29.7736 16.9634 29.2806C12.5781 28.7813 7.96821 27.0884 7.96821 19.5233C7.96821 17.3677 8.73947 15.6065 10.0024 14.2239C9.79746 13.7266 9.12167 11.7185 10.1937 8.99899C10.1937 8.99899 11.8516 8.46836 15.6246 11.0228C17.1994 10.5853 18.8884 10.3659 20.5663 10.3584C22.2442 10.3659 23.9345 10.5853 25.5123 11.0228C29.2806 8.46836 30.9363 8.99899 30.9363 8.99899C32.0109 11.7185 31.3348 13.7266 31.1298 14.2239C32.3957 15.6065 33.1618 17.3677 33.1618 19.5233C33.1618 27.1064 28.543 28.7761 24.1466 29.2649C24.8548 29.8776 25.4858 31.0791 25.4858 32.9211C25.4858 35.5628 25.4629 37.6889 25.4629 38.3392C25.4629 38.8646 25.8183 39.4802 26.8191 39.2863C34.6595 36.6727 40.3094 29.2747 40.3094 20.5545C40.3094 9.65026 31.4698 0.811035 20.5663 0.811035ZM8.21743 28.936C8.17395 29.034 8.01963 29.0635 7.87904 28.9961C7.73584 28.9317 7.65541 28.798 7.70184 28.6996C7.74434 28.5986 7.89899 28.5704 8.04186 28.6381C8.18539 28.7025 8.26712 28.8375 8.21743 28.936ZM9.18859 29.8025C9.09443 29.8898 8.91036 29.8493 8.78547 29.7113C8.65632 29.5736 8.63213 29.3896 8.7276 29.301C8.8247 29.2137 9.00321 29.2545 9.13268 29.3922C9.26182 29.5315 9.287 29.7142 9.18859 29.8025ZM9.85484 30.9112C9.73387 30.9953 9.53607 30.9165 9.41379 30.7409C9.29282 30.5653 9.29282 30.3548 9.41641 30.2704C9.53901 30.1861 9.73387 30.2619 9.85778 30.4362C9.97842 30.6147 9.97842 30.8252 9.85484 30.9112ZM10.9816 32.1953C10.8734 32.3146 10.6429 32.2826 10.4742 32.1198C10.3016 31.9605 10.2535 31.7346 10.3621 31.6153C10.4716 31.4956 10.7034 31.5293 10.8734 31.6908C11.0447 31.8497 11.097 32.0773 10.9816 32.1953ZM12.4379 32.6288C12.3901 32.7834 12.1681 32.8537 11.9445 32.788C11.7212 32.7203 11.5751 32.5392 11.6202 32.3829C11.6666 32.2273 11.8896 32.154 12.1148 32.2243C12.3378 32.2917 12.4843 32.4715 12.4379 32.6288ZM14.0951 32.8126C14.1007 32.9755 13.911 33.1105 13.6763 33.1134C13.4403 33.1187 13.2493 32.9869 13.2467 32.8267C13.2467 32.6622 13.4321 32.5285 13.6681 32.5246C13.9029 32.52 14.0951 32.6508 14.0951 32.8126ZM15.7232 32.7502C15.7513 32.9091 15.5882 33.0723 15.3551 33.1158C15.1259 33.1576 14.9137 33.0595 14.8846 32.9019C14.8561 32.7391 15.0222 32.576 15.2511 32.5338C15.4845 32.4933 15.6934 32.5887 15.7232 32.7502Z" fill="#BBBBBB"/>
</svg>
